<!-- Created with Inkscape (http://www.inkscape.org/) -->
<svg xmlns:rdf="http://www.w3.org/1999/02/22-rdf-syntax-ns#" xmlns="http://www.w3.org/2000/svg" version="1.1" xmlns:cc="http://creativecommons.org/ns#" xmlns:dc="http://purl.org/dc/elements/1.1/" viewBox="0 0 310 400">
<g transform="translate(-256.24145,-283.49565)">
<path fill="#FFF" d="m280,323h260v277h-260v-277z"/>
<path fill="#000" d="m299,676c-14.5-8.47-9.42-26.9-10.4-40.9,2.21-8.27-2.45-9.79-9.81-8.68-5.32-0.754-13.3,1.08-16.9-1.3,0.106-87.9-0.988-176,0.184-264-1.7-15.6,7.17-29.4,19.4-38.3,37.1-26.8,84.8-32.8,129-33.8,44.8,0.489,92.3,6.7,130,32.2,9.96,8.23,22.2,19,20,33.2,0.152,90.6,0.304,181,0.455,272h-25.2c-1.15,14.3,2,29.6-3.86,42.9-8.95,11.9-33.5,11.7-42-0.706-5.46-13.2-2.52-28.2-3.27-42.2h-150c-0.69,13.8,1.99,28.4-2.57,41.6-6.36,12.8-23.7,9.15-35.1,7.87zm223-107c21.5-5.1,24.4-38,4.1-46.8-17.6-10.5-41.1,7.64-36.2,27.3,2.22,14.4,18.3,24.5,32.2,19.5zm-203-3.01c17.9-8.38,18.6-37,0.32-45.5-17.7-9.83-41.1,7.05-36.6,26.9,1.99,16.7,21.6,25.6,36.3,18.6zm181-91.4c27.5-8.71,46.5-38.7,39.8-67.3-5.38-25.9-30.2-46.9-57.1-45.1-51.2-0.711-102,0.0406-154,0.0388-25.8,6.25-47,29.9-46.2,57.1-0.817,31.2,28.1,59.7,59.5,57.1,51.1,0.286,102,0.882,153-0.752l2.43-0.473,1.83-0.624h-0.00002zm-14-138c6.89-9.65-5.72-13.3-13-11.4h-135c-8.54,5.07-1.85,16.8,6.87,13.6h139c0.742-0.742,1.48-1.48,2.23-2.23z"/>
</g>
</svg>
